<?xml version="1.0" encoding="UTF-8"?>
<!DOCTYPE svg PUBLIC "-//W3C//DTD SVG 1.1//EN" "http://www.w3.org/Graphics/SVG/1.1/DTD/svg11.dtd">
<!-- Creator: CorelDRAW Home & Student 2018 -->
<svg xmlns="http://www.w3.org/2000/svg" xml:space="preserve" width="64px" height="64px" version="1.1" style="shape-rendering:geometricPrecision; text-rendering:geometricPrecision; image-rendering:optimizeQuality; fill-rule:evenodd; clip-rule:evenodd"
viewBox="0 0 35.415 35.415"
 xmlns:xlink="http://www.w3.org/1999/xlink">
 <defs>
  <style type="text/css">
   <![CDATA[
    .fil0 {fill:#999999}
   ]]>
  </style>
 </defs>
 <g id="Layer_x0020_1">
  <metadata id="CorelCorpID_0Corel-Layer"/>
  <path class="fil0" d="M17.708 0c9.779,0 17.707,7.928 17.707,17.708 0,9.779 -7.928,17.707 -17.707,17.707 -9.78,0 -17.708,-7.928 -17.708,-17.707 0,-9.78 7.928,-17.708 17.708,-17.708zm0 2.905c8.175,0 14.803,6.627 14.803,14.803 0,8.175 -6.628,14.803 -14.803,14.803 -8.176,0 -14.803,-6.628 -14.803,-14.803 0,-8.176 6.627,-14.803 14.803,-14.803z"/>
  <path class="fil0" d="M16.119 20.416l2.712 0 1.401 -1.956 1.894 1.956 1.484 -1.97 1.539 2.013 1.379 -2.013 1.644 1.864 3.105 -3.115 -2.297 -2.341 -13.087 0.021c-0.859,-1.599 -1.258,-2.098 -2.739,-2.926 -2.658,-1.309 -5.936,-0.379 -7.666,1.91 -4.061,5.375 1.781,12.35 7.743,9.576 1.929,-1.142 2.537,-2.507 2.888,-3.019zm-8.776 -4.422c0.994,0 1.8,0.806 1.8,1.8 0,0.993 -0.806,1.799 -1.8,1.799 -0.993,0 -1.799,-0.806 -1.799,-1.799 0,-0.994 0.806,-1.8 1.799,-1.8z"/>
 </g>
</svg>
